<svg xmlns="http://www.w3.org/2000/svg" width="1024" height="1024" viewBox="0 0 1024 1024">
  <defs>
    <linearGradient id="bg" x1="120" y1="92" x2="912" y2="940" gradientUnits="userSpaceOnUse">
      <stop offset="0%" stop-color="#FFD06A"/>
      <stop offset="58%" stop-color="#F59E35"/>
      <stop offset="100%" stop-color="#C94A5A"/>
    </linearGradient>
    <radialGradient id="glow" cx="0.28" cy="0.22" r="0.76">
      <stop offset="0%" stop-color="#FFFFFF" stop-opacity="0.38"/>
      <stop offset="100%" stop-color="#FFFFFF" stop-opacity="0"/>
    </radialGradient>
    <linearGradient id="box" x1="300" y1="240" x2="720" y2="772" gradientUnits="userSpaceOnUse">
      <stop offset="0%" stop-color="#FFF8E9"/>
      <stop offset="100%" stop-color="#E6C58D"/>
    </linearGradient>
    <linearGradient id="flap" x1="320" y1="520" x2="720" y2="760" gradientUnits="userSpaceOnUse">
      <stop offset="0%" stop-color="#FFD56D"/>
      <stop offset="100%" stop-color="#E58E2E"/>
    </linearGradient>
    <linearGradient id="lens" x1="620" y1="160" x2="860" y2="440" gradientUnits="userSpaceOnUse">
      <stop offset="0%" stop-color="#6B7BFF"/>
      <stop offset="100%" stop-color="#3648D7"/>
    </linearGradient>
  </defs>

  <rect x="22" y="22" width="980" height="980" rx="234" fill="url(#bg)"/>
  <rect x="22" y="22" width="980" height="980" rx="234" fill="url(#glow)"/>

  <g filter="url(#shadow)">
    <rect x="160" y="180" width="704" height="620" rx="78" fill="#2B1B10" opacity="0.16"/>
  </g>

  <rect x="170" y="182" width="684" height="600" rx="68" fill="url(#box)"/>
  <rect x="186" y="534" width="652" height="224" rx="58" fill="url(#flap)"/>

  <rect x="486" y="258" width="52" height="468" rx="24" fill="#F6D46C"/>
  <g fill="#99610E">
    <rect x="496" y="305" width="32" height="14" rx="7"/>
    <rect x="496" y="349" width="32" height="14" rx="7"/>
    <rect x="496" y="393" width="32" height="14" rx="7"/>
    <rect x="496" y="437" width="32" height="14" rx="7"/>
    <rect x="496" y="481" width="32" height="14" rx="7"/>
    <rect x="496" y="525" width="32" height="14" rx="7"/>
    <rect x="496" y="569" width="32" height="14" rx="7"/>
    <rect x="496" y="613" width="32" height="14" rx="7"/>
  </g>

  <path d="M 200 572 H 824" stroke="#8B4A15" stroke-opacity="0.26" stroke-width="8" stroke-linecap="round"/>
  <path d="M 230 612 H 794" stroke="#FFFFFF" stroke-opacity="0.30" stroke-width="6" stroke-linecap="round"/>

  <g>
    <circle cx="700" cy="300" r="118" fill="url(#lens)"/>
    <circle cx="700" cy="300" r="82" fill="#BFC8FF"/>
    <circle cx="662" cy="262" r="32" fill="#FFFFFF" fill-opacity="0.42"/>
    <circle cx="700" cy="300" r="31" fill="#24304A"/>
    <circle cx="710" cy="290" r="8" fill="#FFFFFF"/>
    <path d="M 616 216 L 560 162" stroke="#3648D7" stroke-width="42" stroke-linecap="round"/>
  </g>

  <rect x="275" y="395" width="260" height="136" rx="68" fill="#FFFFFF" fill-opacity="0.46"/>
  <ellipse cx="405" cy="472" rx="40" ry="40" fill="#202835" fill-opacity="0.78"/>
  <circle cx="416" cy="460" r="10" fill="#FFFFFF"/>

  <rect x="146" y="148" width="732" height="728" rx="234" fill="none" stroke="#FFFFFF" stroke-opacity="0.18" stroke-width="4"/>
</svg>
